<?xml version="1.0" encoding="UTF-8"?>
<svg width="833px" height="894px" viewBox="0 0 833 894" version="1.1" xmlns="http://www.w3.org/2000/svg" xmlns:xlink="http://www.w3.org/1999/xlink">
    <title>Group 51</title>
    <g id="Page-1" stroke="none" stroke-width="1" fill="none" fill-rule="evenodd">
        <g id="Extra-Large" transform="translate(-1020, -310)" fill="#052EE2">
            <g id="Group-51" transform="translate(1020, 310)">
                <path d="M298.743329,629 C297.577029,629 296.410263,628.561165 295.510959,627.679293 C284.155494,616.553892 270.901706,607.417254 256.11677,600.523342 C241.326709,593.627097 225.726342,589.311574 209.748547,587.696755 C208.825478,587.603853 207.895887,587.517486 206.963033,587.430653 C199.6577,586.752326 191.377577,585.982497 184.496268,581.536725 C179.398191,578.242661 175.707316,572.280107 175.093179,566.346031 C174.602057,561.603812 176.063776,557.277085 179.208079,554.163691 C183.939445,549.479827 190.617129,548.929416 196.512465,548.998976 C200.725682,549.052196 204.925387,549.293089 209.098997,549.717452 L204.442651,547.352411 C201.812768,546.016298 193.062491,541.083606 190.879931,533.694838 C189.95826,530.575375 190.327301,527.449842 191.946981,524.65437 C194.910957,519.537741 201.018771,517.384181 210.095221,518.257183 C224.297706,519.619439 238.303089,522.678679 251.74932,527.308855 C244.640622,521.095605 237.752324,514.649399 231.115644,507.994979 C228.137689,505.008567 219.074286,495.921881 222.70645,485.979933 C225.431389,478.521139 233.880656,475.367596 240.809026,476.104278 C247.08412,476.772801 252.483674,479.959491 257.475978,483.166721 C282.871306,499.479712 306.238774,518.444855 327.251741,539.771303 C324.796594,531.510934 323.437852,522.936845 323.273834,514.325408 C323.093041,504.854974 325.83988,498.46619 331.439797,495.335989 C334.919126,493.39111 338.765632,493.05358 342.562747,494.356547 C350.042815,496.924665 355.905534,505.383911 358.8984,512.444019 L387.630939,580.221621 C388.629027,582.576857 387.533088,585.296701 385.182782,586.296684 C382.829214,587.298535 380.116856,586.19818 379.118768,583.84341 L350.386228,516.066275 C347.690645,509.706902 343.240254,504.38346 339.564289,503.121576 C338.249348,502.669669 337.13244,502.763972 335.945637,503.42736 C332.977001,505.08653 332.443942,510.173748 332.519894,514.148473 C332.873558,532.66451 339.342492,551.001277 350.734767,565.780681 C352.277097,567.780648 351.93415,570.649882 349.965,572.229221 C347.994451,573.808093 345.126463,573.514448 343.516102,571.569568 C317.562087,540.214806 286.934484,513.095736 252.48414,490.966313 C248.254614,488.249738 244.103835,485.773121 239.831907,485.318413 C236.576705,484.97108 232.422198,486.343606 231.390561,489.165689 C230.326773,492.077873 232.434779,496.209925 237.657268,501.445133 C253.992455,517.823483 271.888611,532.918941 290.849021,546.312745 C292.905306,547.765103 293.424852,550.598856 292.017651,552.688925 C290.610915,554.779927 287.794182,555.358816 285.679652,553.993292 C262.855495,539.257772 236.414084,530.089388 209.213624,527.480654 C204.268848,527.004005 200.89203,527.671594 199.944732,529.306488 C199.602716,529.896114 199.547733,530.388637 199.74763,531.065096 C200.466608,533.49923 204.116945,536.798429 208.624649,539.088307 L250.950197,560.586555 C256.39821,562.936189 261.702708,565.63129 266.826879,568.661586 C268.976356,569.932807 269.731212,572.683929 268.531829,574.87717 C267.332912,577.070412 264.610769,577.913535 262.385806,576.782835 L247.028205,568.982309 C231.102597,562.155623 213.872765,558.484348 196.395974,558.26353 C192.410146,558.213111 188.016602,558.470343 185.708698,560.754152 C184.567094,561.884386 184.08995,563.444118 184.291711,565.389931 C184.622543,568.588758 186.718901,571.94818 189.507676,573.749738 C194.486001,576.966305 200.961458,577.568069 207.817139,578.204847 C208.774689,578.294014 209.729442,578.382715 210.67674,578.478418 C227.687105,580.197345 244.28789,584.788306 260.019192,592.12292 C275.754687,599.460334 289.871435,609.194069 301.97663,621.054752 C303.802265,622.843705 303.835348,625.776897 302.049786,627.606465 C301.143958,628.534088 299.944109,629 298.743329,629" id="Fill-1"></path>
                <path d="M180.897765,567 C180.707006,567 180.514369,566.988315 180.320321,566.964477 C177.764346,566.650375 175.948852,564.334807 176.26459,561.792076 C181.3164,521.116797 196.467129,482.243865 221.295795,446.252071 L222.05601,445.153649 C225.269303,440.51597 228.304053,436.135836 229.371079,431.345312 C230.266609,427.323217 229.24187,421.975536 225.578463,419.987625 C218.815936,416.31796 209.435413,425.397472 206.7211,428.266925 C188.75034,447.264022 174.481986,468.989881 164.312588,492.841537 C163.31604,495.180475 160.614412,496.286844 158.250605,495.321167 C155.888207,494.356892 154.744597,491.681416 155.686173,489.320509 L192.836611,396.138306 C194.803396,391.206156 195.07121,387.590711 193.55407,386.466114 C191.669508,385.068546 187.330458,387.418235 184.021317,390.462969 C163.542977,409.299275 147.920049,433.60666 139.295513,459.799124 L136.155517,470.629568 C135.450744,473.06012 132.917322,474.48059 130.463304,473.822939 C128.008346,473.165288 126.535372,470.672103 127.152283,468.218181 C128.092449,464.481675 129.168872,460.76854 130.374973,457.093266 L152.271315,381.572759 C153.580782,377.057075 154.518599,372.539053 152.536309,370.075316 C150.665843,367.752269 146.27558,367.842013 143.347485,369.383076 C139.463249,371.427544 136.638991,375.474412 134.078787,379.444624 C120.87041,399.92576 111.23758,422.463049 105.447639,446.431091 C99.6591071,470.395861 97.9638942,494.746715 100.410395,518.807305 C100.669751,521.356113 98.8025735,523.631015 96.2409604,523.889028 C93.673709,524.143301 91.3921255,522.290005 91.1327692,519.741198 C88.580553,494.639677 90.3457732,469.245089 96.3809752,444.263226 C102.414768,419.285103 112.457306,395.791018 126.229501,374.435351 C129.317814,369.646697 133.104791,364.278918 138.986823,361.183236 C145.230637,357.896383 154.654855,357.862262 159.81567,364.277983 C165.090657,370.832526 162.484408,379.822762 161.231793,384.143535 L153.287597,411.540992 C160.40392,401.408864 168.593376,392.019456 177.69058,383.651348 C185.422874,376.538713 193.435198,374.809749 199.125061,379.026756 C202.84579,381.784497 206.279442,387.584635 201.504843,399.55884 L186.313707,437.661007 C190.595904,432.230594 195.136049,426.977798 199.930381,421.909631 C210.420685,410.819772 221.397282,407.150574 230.043901,411.843876 C238.147846,416.241772 240.095367,426.075689 238.47533,433.351452 C237.015511,439.910669 233.313576,445.252273 229.733332,450.418598 L228.984863,451.501128 C205.009912,486.254742 190.385882,523.744597 185.519193,562.929761 C185.227417,565.278983 183.217406,567 180.897765,567" id="Fill-3"></path>
                <path d="M212.808592,292.304099 C208.624062,292.304099 204.881013,292.509484 201.596657,292.921189 C191.261635,294.216188 188.918856,297.1159 188.391778,298.301891 C187.733046,299.784028 189.456635,302.156945 190.542891,303.439312 C201.362193,316.215731 243.039555,334.884675 294.251318,349.894593 C335.369502,361.945849 372.167315,368.724477 394.63445,368.724477 C400.687249,368.724477 405.697055,368.23277 409.474994,367.219882 C411.620991,366.644431 415.282629,365.352239 415.688289,363.163654 C416.052545,361.198231 415.418004,353.776315 391.956723,340.783283 C375.906178,331.894669 352.48723,322.425457 326.013739,314.120715 C294.073609,304.100379 260.78252,296.659282 234.675612,293.704831 C226.430296,292.771478 219.118185,292.304099 212.808592,292.304099 L212.808592,292.304099 Z M394.614446,378 C367.421281,378 325.921163,368.848456 291.668028,358.808939 C248.993729,346.301064 198.171809,326.768943 183.51316,309.460028 C177.98744,302.934974 178.532197,297.729714 179.962241,294.512334 C184.61756,284.041931 202.853179,280.75952 235.707904,284.477496 C262.371665,287.495106 296.288921,295.068604 328.763573,305.256428 C355.809733,313.741291 379.833914,323.46969 396.410142,332.649773 C417.358379,344.250493 426.633661,354.788734 424.765393,364.865679 C423.496776,371.705594 417.043435,374.800398 411.853129,376.192241 C407.202462,377.439052 401.345981,378 394.614446,378 L394.614446,378 Z" id="Fill-5"></path>
                <path d="M267,346.141036 C328.222672,366.569444 402.775597,381.017964 418,368.093528 C409.875385,348.730395 332.835801,342.08116 267,346.141036" id="Fill-7"></path>
                <path d="M293.607213,350.270649 C316.8181,356.960192 340.053765,362.325984 359.9607,365.523157 C374.360267,367.836134 386.462449,368.941033 395.926424,368.806391 C403.024289,368.705525 407.526491,367.91803 410.370873,367.013938 C405.743843,363.133837 393.801085,357.303969 363.021543,353.461808 C342.786878,350.936457 318.449271,349.845902 293.607213,350.270649 M394.378003,378 C384.648945,378 372.583229,376.853922 358.474458,374.587676 C330.753889,370.135693 296.743794,361.568101 265.164327,351.081741 C263.060026,350.383083 261.750507,348.307002 262.039901,346.12913 C262.33023,343.95172 264.137656,342.28188 266.352759,342.145849 C300.506849,340.050336 336.163077,340.854025 364.182391,344.351483 C379.360844,346.245727 391.804314,348.857601 401.168241,352.113998 C412.441045,356.034816 419.138246,360.8278 421.641807,366.766862 C422.417888,368.606972 421.90502,370.732561 420.372962,372.026699 C415.822606,375.87071 407.86965,377.820477 396.059667,377.988433 C395.50706,377.995836 394.946038,378 394.378003,378" id="Fill-9"></path>
                <path d="M155.653892,366 C155.409891,366 155.162611,365.980938 154.913459,365.94142 C152.378847,365.538333 150.653512,363.171883 151.059087,360.656194 C154.941559,336.593724 164.821488,313.492712 179.631548,293.849785 C181.168613,291.80971 184.081169,291.39314 186.137146,292.920407 C188.192186,294.447209 188.610875,297.338555 187.072873,299.37863 C173.162011,317.829498 163.882015,339.523659 160.237456,362.115582 C159.871689,364.383933 157.896733,366 155.653892,366" id="Fill-11"></path>
                <path d="M370.605196,549 C369.974325,549 369.332776,548.868392 368.719545,548.590658 C366.398458,547.538266 365.363254,544.787153 366.405886,542.445851 C392.084068,484.806898 410.552027,418.17086 415.80836,364.193032 C416.057644,361.638628 418.305385,359.775515 420.843725,360.021869 C423.375567,360.272907 425.226401,362.547235 424.977581,365.102107 C419.628404,420.027416 400.874488,487.749099 374.810077,546.256849 C374.042261,547.978988 372.363187,549 370.605196,549" id="Fill-13"></path>
                <path d="M419.186761,483 C411.812379,483 404.457565,482.044778 397.38742,480.083618 C394.926963,479.401516 393.486378,476.856428 394.169864,474.399744 C394.852884,471.941664 397.401863,470.503015 399.861388,471.186047 C421.225572,477.112333 445.540347,472.719614 463.319373,459.726174 C473.230621,452.481747 479.878653,443.386432 482.036736,434.116171 C484.46225,423.70225 480.746639,412.685324 473.00186,407.325285 C467.135154,403.265708 456.342876,400.920226 443.647365,406.515231 C433.4808,410.995888 425.093069,418.946611 416.982087,426.635382 C415.129174,428.391353 412.203741,428.315512 410.445407,426.465554 C408.687538,424.616062 408.763947,421.693631 410.615929,419.938125 C418.895103,412.089764 428.278944,403.19452 439.914515,398.066657 C453.459841,392.098031 468.155957,392.737327 478.268943,399.735155 C483.813241,403.572793 487.93326,409.25248 490.183593,416.160043 C492.262472,422.542769 492.567641,429.662035 491.043658,436.208075 C488.383793,447.629796 480.477344,458.629041 468.779807,467.178116 C454.65862,477.499447 436.874469,483 419.186761,483" id="Fill-15"></path>
                <path d="M506.123757,894 C496.653814,894 487.376849,893.080037 478.350198,891.239644 C439.877039,883.396631 403.297309,858.707375 366.521804,815.762074 C323.741117,765.806018 289.172282,700.19566 269.1822,631.017412 C268.799039,629.692516 269.026978,628.26592 269.802156,627.125762 C270.5778,625.986072 271.820974,625.251314 273.192336,625.122556 C297.605547,622.824514 321.630004,616.867613 342.66935,607.897038 C366.08364,597.912732 385.272907,584.604521 399.70343,568.340953 C400.8338,567.066906 402.571075,566.517821 404.228176,566.909691 C405.884343,567.302029 407.191844,568.573743 407.630941,570.219133 C418.338932,610.320106 437.796225,648.763092 463.900098,681.392396 C475.99017,696.503211 500.209471,720.905096 526.606541,714.543727 C536.428414,712.176641 545.083092,705.776553 552.331448,695.522135 C558.231751,687.173889 563.186271,676.484681 567.477484,662.842914 C584.987277,607.181874 590.501621,547.194861 583.424335,489.366869 C583.113425,486.828573 584.917357,484.519335 587.453583,484.208637 C589.984215,483.894674 592.295765,485.702878 592.606675,488.240707 C599.843844,547.371669 594.205508,608.71017 576.3023,665.623797 C571.717889,680.19579 566.34758,691.724721 559.883723,700.869305 C551.304093,713.008434 540.836627,720.637784 528.772658,723.545092 C515.654763,726.707582 501.952339,724.092778 488.044817,715.776254 C477.39789,709.408821 466.551458,699.520616 456.678777,687.17902 C431.503905,655.7118 412.327224,618.993511 400.925628,580.534197 C386.376242,595.094528 368.037666,607.144087 346.295393,616.415095 C325.997663,625.069841 303.060227,631.027209 279.634283,633.753976 C299.474271,699.729614 332.700645,762.040327 373.546417,809.736594 C408.93145,851.057965 443.817255,874.750283 480.196548,882.16737 C497.43645,885.682077 515.71536,885.595772 534.52473,881.910788 C552.212585,878.445531 569.582538,871.985728 586.152141,862.709588 C614.620703,846.772578 641.277409,822.666929 667.646978,789.014096 C697.681744,750.684006 721.248459,707.163495 735.79971,663.157344 C751.407683,615.954647 756.874482,568.901701 752.049547,523.305674 C747.046084,476.033934 730.290959,430.69169 703.594166,392.17966 C675.942268,352.290018 638.819028,321.763287 596.237845,303.900046 C593.882013,302.911505 592.772618,300.198733 593.759886,297.840978 C594.74762,295.482755 597.459578,294.372922 599.814012,295.360996 C644.022928,313.906745 682.537573,345.561037 711.194919,386.901534 C738.774567,426.687144 756.083456,473.517564 761.249134,522.330663 C766.214375,569.245054 760.606804,617.604703 744.582108,666.066051 C729.699904,711.075671 705.612985,755.566063 674.926565,794.727945 C647.787413,829.363254 620.22641,854.243314 590.668497,870.790522 C573.243074,880.544838 554.951578,887.343329 536.302092,890.997057 C526.085405,892.998864 515.999701,894 506.123757,894" id="Fill-17"></path>
                <path d="M119.857107,873 C102.456575,873 85.9618786,868.639113 72.1245811,860.211703 C59.3771758,852.447662 48.142759,841.090602 38.7321292,826.454479 C31.1443547,814.652373 24.5891587,800.619907 18.6928372,783.554693 C-1.78958758,724.279654 -5.58067906,656.677037 8.01711242,593.198789 C15.0256924,560.480938 26.4208672,529.578257 41.8839167,501.349116 C58.1749861,471.610831 78.7454782,445.319551 103.024586,423.205355 C104.913608,421.483952 107.837539,421.623437 109.55695,423.514181 C111.274963,425.405392 111.137037,428.333643 109.247549,430.053646 C85.7270323,451.477415 65.7907185,476.962575 49.9926401,505.801438 C34.9606083,533.242653 23.8799599,563.30096 17.0596298,595.140382 C3.81038014,656.989128 7.49429966,722.827891 27.4320113,780.527543 C33.0850991,796.886468 39.3248368,810.26956 46.5086196,821.442817 C55.2762176,835.079687 65.2273668,845.173919 76.9305444,852.30118 C93.7160027,862.524167 115.004081,866.057008 136.876479,862.248929 C158.042941,858.563541 177.974129,848.51456 192.99824,833.953544 C208.057297,819.35894 219.494875,802.563832 226.993184,784.035659 C234.355432,765.84337 237.97132,745.864833 237.7416,724.65519 C237.453633,698.1036 223.012911,665.327903 209.047473,633.631697 C200.849284,615.024685 193.105877,597.449115 188.567378,581.853857 C187.853054,579.399109 189.2612,576.8296 191.713574,576.114448 C194.165482,575.39883 196.732017,576.809541 197.446342,579.263823 C201.813832,594.272217 209.437486,611.575348 217.508932,629.894993 C231.85087,662.445369 246.680673,696.10416 246.989141,724.554892 C247.232375,746.996107 243.388164,768.178227 235.564145,787.512053 C227.579368,807.244276 215.421875,825.107679 199.430421,840.605903 C183.088095,856.444676 161.435166,867.370686 138.461227,871.370965 C132.20052,872.461187 125.9715,873 119.857107,873" id="Fill-19"></path>
                <path d="M95.6561734,721 C95.2569417,721 94.8511652,720.948732 94.4472587,720.839672 C91.9733311,720.175522 90.5077674,717.63777 91.1739327,715.171326 C98.1969513,689.166007 101.189787,659.115665 100.324005,623.303763 C99.5096476,589.627395 95.3798901,553.855109 91.0378947,520.215094 C90.8139697,518.47572 91.5946687,516.759649 93.056025,515.783232 C94.5164464,514.807281 96.4060184,514.737837 97.9346925,515.606125 C104.729111,519.463322 111.715199,523.946452 119.110802,528.693377 C138.585269,541.191981 158.722628,554.116574 178.166708,557.53986 C180.689722,557.984024 182.374068,560.38382 181.928555,562.898735 C181.482575,565.414582 179.074563,567.090104 176.553419,566.649202 C155.270256,562.901997 133.391984,548.859768 114.088617,536.471156 C109.735402,533.677531 105.527107,530.976189 101.442228,528.458477 C105.353203,559.554681 108.851389,592.124133 109.599364,623.080515 C110.487117,659.792399 107.3905,690.702175 100.132804,717.576248 C99.5755629,719.640007 97.7023528,721 95.6561734,721" id="Fill-21"></path>
                <path d="M500.920583,361 C488.923185,361 477.373921,358.775428 466.883375,354.389763 C452.983273,348.578151 440.407969,338.722074 430.517736,325.886677 C421.189539,313.78129 414.442315,299.358913 411.005685,284.179453 C404.975943,257.544802 408.055467,226.73546 419.910488,195.081286 C430.425308,167.004817 446.283197,141.181858 461.61873,116.208868 C462.957998,114.029105 465.810187,113.346704 467.990174,114.685368 C470.170628,116.023565 470.852632,118.875927 469.514298,121.056157 C454.407967,145.654807 438.78815,171.090822 428.586557,198.329926 C417.366859,228.287433 414.411973,257.266614 420.041661,282.134583 C426.617567,311.17911 445.935893,335.59059 470.457247,345.842945 C497.463413,357.133371 532.277853,351.85153 559.148178,332.384891 C588.340866,311.235588 603.558763,278.931219 611.18405,255.555476 C621.160175,224.97438 624.593072,197.142025 627.759421,166.524522 C628.0227,163.98022 630.298383,162.134656 632.843412,162.393707 C635.388909,162.656959 637.23793,164.932875 636.975118,167.477176 C633.753219,198.631919 630.251702,226.979575 619.992225,258.427909 C608.446229,293.822688 589.286617,321.990642 564.584142,339.887104 C550.612152,350.008766 534.314531,356.833245 517.453474,359.622128 C511.890073,360.542576 506.357947,361 500.920583,361" id="Fill-23"></path>
                <path d="M635.147405,290 C623.698415,290 612.602144,284.603664 606.739535,275.553024 C605.344711,273.400086 605.980739,270.537742 608.160802,269.159974 C610.340866,267.782206 613.238645,268.410923 614.632998,270.563861 C619.804332,278.546894 631.431807,282.570126 641.677207,279.922797 C651.513225,277.380875 659.931753,269.378719 663.647351,259.038928 C666.374673,251.448611 666.296291,243.360636 663.431564,236.849119 C660.393547,229.941155 653.929379,224.688473 646.964698,223.466485 C639.906053,222.228639 630.057759,226.575558 626.693936,232.41125 C625.412907,234.63275 622.551485,235.407919 620.303428,234.143022 C618.054426,232.878124 617.26966,230.05216 618.549745,227.831127 C623.870761,218.599987 637.633915,212.426616 648.603641,214.352413 C658.73005,216.12896 667.705281,223.335424 672.026688,233.159834 C675.826807,241.79817 675.991598,252.359505 672.479038,262.135409 C667.73975,275.324017 656.846045,285.57146 644.049448,288.87829 C641.116255,289.636202 638.118845,290 635.147405,290" id="Fill-25"></path>
                <path d="M513.91953,232 C512.657616,232 511.400405,231.492278 510.479956,230.492318 C502.915528,222.270222 500.918477,209.396978 505.268153,196.895375 C508.94995,186.313919 516.274036,177.481336 522.735995,169.688598 C524.378882,167.70698 527.319898,167.429187 529.308012,169.069196 C531.293775,170.708735 531.571744,173.643857 529.928857,175.625475 C523.67902,183.162475 517.216121,190.955682 514.08697,199.949216 C510.913607,209.069445 512.197156,218.586655 517.356752,224.194593 C519.09982,226.0894 518.9733,229.034846 517.074079,230.773865 C516.178088,231.594573 515.046927,232 513.91953,232" id="Fill-27"></path>
                <path d="M510.637266,276 C505.679516,276 500.788284,275.300496 496.189643,273.900108 C486.759311,271.027589 478.056036,265.052602 471.683712,257.075681 C465.297434,249.081284 461.505392,239.394004 461.006268,229.798704 C460.874626,227.281226 462.832514,225.135804 465.378838,225.006113 C467.918185,224.876882 470.095167,226.812131 470.225879,229.329609 C471.056667,245.292189 483.119379,260.368086 498.908079,265.176774 C514.736783,269.997419 533.603494,264.301589 543.766928,251.631415 C545.351287,249.657535 548.254395,249.325489 550.251822,250.8919 C552.249715,252.457851 552.584635,255.32853 551.000276,257.30333 C544.931241,264.869562 536.117256,270.690944 526.182684,273.694994 C521.10492,275.231052 515.834577,276 510.637266,276" id="Fill-29"></path>
                <path d="M256.631791,297 C255.029761,297 253.472957,296.181487 252.616925,294.718614 C251.342668,292.541261 252.105916,289.761251 254.321063,288.508734 C321.261299,250.666506 376.830665,245.26689 411.660829,247.399331 C414.211209,247.555151 416.14987,249.714172 415.990879,252.221039 C415.831422,254.727905 413.641453,256.631657 411.085479,256.477212 C377.522111,254.422223 323.880683,259.678394 258.934126,296.393677 C258.207711,296.804767 257.414622,297 256.631791,297" id="Fill-31"></path>
                <path d="M313.085776,270 C311.935866,270 310.78361,269.577637 309.883191,268.725427 C290.88856,250.749034 290.026596,225.227168 307.577273,200.455078 C314.867388,190.164946 325.171563,182.556329 335.136206,175.197949 C347.142268,166.332533 358.482864,157.958236 364.060306,145.649835 C367.085153,138.975749 368.167063,131.582757 369.313222,123.755709 C370.536292,115.404799 371.800162,106.769507 375.604435,98.725898 C385.929245,76.8944475 411.358592,66.9644701 429.587397,61.3937668 C434.522822,59.8857947 439.261279,58.6799783 443.84357,57.5134516 C458.096461,53.8866478 470.405477,50.7537703 481.091393,40.3242538 C482.928811,38.5309644 485.874402,38.563238 487.672427,40.3953493 C489.469984,42.2274605 489.438094,45.1662286 487.601144,46.959518 C475.128458,59.1322764 461.050024,62.7151133 446.145268,66.5084301 C441.668026,67.6478284 437.038838,68.8260485 432.31398,70.2699411 C397.77961,80.8224715 388.21359,93.8240533 384.022888,102.686196 C380.809985,109.479086 379.699467,117.065252 378.523294,125.097168 C377.334928,133.215146 376.105762,141.609088 372.54207,149.473087 C365.967132,163.982173 353.108954,173.476691 340.674255,182.659231 C330.868592,189.900209 321.606465,196.739405 315.178783,205.812028 C308.097828,215.806552 304.327321,226.065814 304.274796,235.481284 C304.21852,245.47347 308.261029,254.393144 316.290238,261.991471 C318.154857,263.755761 318.231768,266.694061 316.462349,268.553301 C315.547861,269.514961 314.317757,270 313.085776,270" id="Fill-33"></path>
                <path d="M490.572663,82 C489.28397,82 488.002689,81.4588219 487.093842,80.4025243 C476.392877,67.9717154 474.985599,48.3162027 483.671534,32.603891 C490.989102,19.367597 505.04428,8.87069703 522.233176,3.80419081 C552.842631,-5.21808041 584.803314,2.07549219 605.640571,22.8422115 C607.44298,24.6383828 607.454561,27.5620473 605.666512,29.3726439 C603.877536,31.1827751 600.967092,31.193943 599.16561,29.398237 C580.705624,11.0014402 552.218203,4.59059745 524.821678,12.6659234 C509.932232,17.05491 497.8629,25.9561956 491.708954,37.0878049 C484.859707,49.4776648 485.821362,64.805149 494.047778,74.3616183 C495.70844,76.2908739 495.498136,79.2070931 493.577604,80.8752989 C492.708594,81.6300631 491.63808,82 490.572663,82" id="Fill-35"></path>
                <path d="M651.890222,123 C650.877606,123 649.857494,122.673356 649.002792,122.000552 C646.991151,120.417512 646.654706,117.517208 648.250711,115.522494 C660.642946,100.040576 664.149378,78.889079 657.184779,61.6359404 C650.004161,43.8470679 631.149183,31.0428898 612.323726,31.2236361 C602.974491,31.3068073 593.56106,34.6861587 585.818139,40.7399975 C578.048977,46.813816 572.865006,54.9195201 571.220737,63.5632812 C570.744184,66.0653859 568.308004,67.7097589 565.789352,67.2395398 C563.265546,66.7679267 561.605345,64.3564275 562.081428,61.8538582 C566.291677,39.719176 588.324139,22.2142006 612.240318,22.0023232 C612.396357,22 612.552397,22 612.708436,22 C623.845796,22 634.863668,25.5210677 644.601829,32.197064 C654.157242,38.747142 661.692111,47.985182 665.818951,58.2091953 C674.001875,78.4801929 669.965003,103.2271 655.535823,121.255264 C654.617863,122.402004 653.260368,123 651.890222,123" id="Fill-37"></path>
                <path d="M704.263218,389 C701.847238,389 699.810244,387.127894 699.641078,384.680368 C699.464903,382.124862 701.393482,379.909654 703.94872,379.733428 C745.323207,376.877825 764.988916,366.876434 780.076879,356.494545 C804.748855,339.517984 820.94901,313.888603 823.411722,287.936686 C824.685135,274.514087 821.935964,260.34919 815.669368,248.052191 C809.155567,235.26765 799.455661,225.363487 787.618758,219.410145 C781.359171,216.261923 774.130389,213.931256 767.139933,211.676783 C752.144497,206.84203 736.638294,201.842269 727.667389,188.301407 C720.423652,177.367002 720.078312,164.586201 719.744187,152.226098 C719.56147,145.471092 719.389033,139.090508 718.172164,132.997868 C714.394916,114.088901 695.883457,87.5120144 668.137064,90.5223414 C665.594443,90.8014043 663.303233,88.9578128 663.027522,86.4107209 C662.750876,83.8640965 664.591133,81.5755001 667.13796,81.2992418 C686.427486,79.2041664 700.252784,88.511873 708.454501,96.6865001 C717.775887,105.978314 724.808868,118.873171 727.267373,131.179986 C728.638921,138.049047 728.83005,145.128457 729.015571,151.975081 C729.3282,163.537261 729.623539,174.458578 735.398994,183.176373 C742.575438,194.008875 755.889501,198.302331 769.98537,202.84727 C777.310418,205.209255 784.885942,207.65164 791.785273,211.121462 C818.889585,224.753475 835.691633,256.701272 832.644787,288.81314 C829.925991,317.465469 812.239797,345.62418 785.333156,364.137691 C757.966684,382.969062 730.352071,387.210632 704.587063,388.988781 C704.478647,388.99626 704.370232,389 704.263218,389" id="Fill-39"></path>
                <path d="M683.366971,202 C683.152897,202 682.936018,201.985033 682.717737,201.954631 C662.136213,199.071599 643.221478,188.030111 630.82386,171.662217 C626.356342,165.764724 622.808223,159.272757 620.244004,152.438887 C616.314477,155.439784 611.307099,157.079614 605.800994,157.118902 C605.733219,157.11937 605.66451,157.11937 605.597202,157.11937 C596.972996,157.119838 587.975327,153.253189 582.067248,146.997421 C579.90734,144.710266 578.079295,142.224329 576.517673,139.614914 C575.759065,140.94558 574.840134,142.225732 573.740782,143.442742 C569.845376,147.753726 564.161187,150.212067 557.735683,150.364544 C549.655544,150.554439 541.078545,147.106868 535.370518,141.361852 C532.911934,138.88714 530.881967,136.144892 529.178253,133.2497 C526.248986,138.340374 521.934312,142.496543 516.794657,145.003527 C503.334612,151.567055 485.087808,147.882349 473.408134,136.240775 C463.681771,126.546791 458.209787,112.149405 458,95.7005954 C457.967667,93.1374847 460.017734,91.0332082 462.579615,91 C462.599246,91 462.619813,91 462.639911,91 C465.173748,91 467.243913,93.0392633 467.276632,95.582262 C467.454715,109.589569 471.957289,121.693251 479.954697,129.663683 C488.924788,138.604169 502.708748,141.546601 512.730515,136.658918 C517.908965,134.133225 522.017044,128.821786 523.451996,122.796605 C523.600633,122.171262 523.718888,121.550596 523.806762,120.936478 C522.311513,116.315396 521.242543,111.706474 520.266121,107.496985 C519.771599,105.364178 520.833558,103.175711 522.814447,102.245882 C524.794869,101.316988 527.156231,101.89743 528.478538,103.641094 C531.899521,108.149924 533.5392,113.86407 533.219959,119.840141 C535.180282,125.420519 537.848733,130.689395 541.948865,134.816565 C545.8625,138.755243 551.991665,141.219197 557.515533,141.084025 C560.24241,141.01948 564.077053,140.295916 566.859085,137.216909 C569.857529,133.898429 570.593702,129.325053 570.163683,124.319504 C568.761917,119.410773 567.792506,114.532911 566.905359,110.067579 C566.425795,107.653672 567.913098,105.284197 570.295026,104.668677 C572.676487,104.053156 575.124787,105.405337 575.873113,107.750022 C577.413701,112.575499 578.782281,117.651207 579.324478,122.626354 C581.294617,129.279217 584.110303,135.645366 588.809657,140.621449 C592.957932,145.013817 599.533943,147.836513 605.597202,147.836513 C605.643944,147.836513 605.689282,147.836513 605.735089,147.836045 C608.755033,147.81453 613.009411,147.076466 616.127045,143.680812 C616.522008,143.250041 616.887523,142.794013 617.220788,142.314599 C615.147351,133.098158 614.779031,123.510347 616.252779,114.093253 C616.579032,112.005815 618.273398,110.402935 620.374412,110.192929 C622.474024,109.982922 624.452576,111.219576 625.185009,113.200842 C629.789011,125.652509 630.422821,135.82731 627.096254,143.570898 C629.340296,151.626455 633.088468,159.284918 638.216438,166.055178 C649.144515,180.481563 665.832969,190.215771 684.004053,192.761576 C686.541161,193.116576 688.309846,195.462664 687.954613,198.001454 C687.629762,200.321817 685.643264,202 683.366971,202" id="Fill-41"></path>
                <path d="M491.928121,184.222147 C493.86305,178.990765 494.568654,174.427044 493.503849,174.027919 C492.439044,173.629255 490.006902,177.546928 488.071973,182.77785 C486.136587,188.009232 485.431439,192.573413 486.496244,192.972078 C487.561049,193.370743 489.993192,189.453529 491.928121,184.222147" id="Fill-43"></path>
                <path d="M486.235926,197 C485.642313,197 485.03867,196.881729 484.425452,196.645186 C481.601917,195.554253 480.515451,192.693983 481.197512,188.144326 C481.539911,185.860273 482.29948,183.010411 483.336707,180.119863 C484.373021,177.228842 485.594441,174.557332 486.774371,172.596869 C489.125114,168.692027 491.749411,167.263311 494.573403,168.355191 C497.39785,169.446598 498.484317,172.306395 497.802711,176.856051 C497.460312,179.140104 496.700743,181.99044 495.663972,184.880515 C494.627202,187.771536 493.406238,190.443045 492.225852,192.403982 C490.385287,195.461528 488.376487,197 486.235926,197" id="Fill-45"></path>
                <path d="M557.928121,198.222147 C559.86305,192.990765 560.568654,188.427044 559.503849,188.027919 C558.439044,187.629255 556.006902,191.546928 554.071973,196.77785 C552.136587,202.009232 551.431439,206.573413 552.496244,206.972078 C553.561049,207.370743 555.993192,203.453529 557.928121,198.222147" id="Fill-47"></path>
                <path d="M552.235837,211 C551.642685,211 551.039502,210.881727 550.426745,210.64518 C547.602317,209.5547 546.515403,206.694379 547.19746,202.144169 C547.539856,199.860076 548.29942,197.010163 549.336639,194.119564 C550.372946,191.228491 551.593901,188.556934 552.774279,186.596436 C555.125461,182.691052 557.752475,181.264204 560.573255,182.354683 C563.397683,183.44469 564.484597,186.305011 563.80254,190.855221 C563.460144,193.139788 562.70058,195.989701 561.663817,198.8803 C560.627054,201.771372 559.406099,204.442929 558.226177,206.403427 C556.385626,209.461501 554.37684,211 552.235837,211" id="Fill-49"></path>
            </g>
        </g>
    </g>
</svg>